<?xml version="1.0" encoding="UTF-8"?>
<svg xmlns="http://www.w3.org/2000/svg" version="1.1" width="300" height="300" viewBox="0 0 300 300"><rect x="0" y="0" width="300" height="300" fill="#ffffff"/><g transform="scale(9.091)"><g transform="translate(0,0)"><path fill-rule="evenodd" d="M10 0L10 2L11 2L11 0ZM12 0L12 1L13 1L13 2L12 2L12 4L13 4L13 5L11 5L11 6L10 6L10 4L11 4L11 3L8 3L8 4L9 4L9 5L8 5L8 7L9 7L9 8L6 8L6 9L8 9L8 11L7 11L7 10L3 10L3 9L5 9L5 8L0 8L0 12L1 12L1 9L2 9L2 10L3 10L3 11L2 11L2 13L0 13L0 17L1 17L1 18L2 18L2 19L1 19L1 20L2 20L2 21L0 21L0 25L1 25L1 22L3 22L3 24L4 24L4 25L5 25L5 24L6 24L6 25L8 25L8 27L9 27L9 26L10 26L10 28L8 28L8 33L9 33L9 32L10 32L10 33L12 33L12 31L13 31L13 30L11 30L11 29L10 29L10 28L11 28L11 25L12 25L12 26L13 26L13 27L12 27L12 29L13 29L13 28L14 28L14 29L15 29L15 28L14 28L14 27L16 27L16 28L17 28L17 30L15 30L15 31L14 31L14 32L15 32L15 33L16 33L16 32L15 32L15 31L17 31L17 30L18 30L18 31L19 31L19 32L20 32L20 33L21 33L21 32L22 32L22 33L28 33L28 32L23 32L23 31L24 31L24 29L25 29L25 30L26 30L26 31L27 31L27 30L26 30L26 29L28 29L28 30L29 30L29 32L31 32L31 33L32 33L32 32L31 32L31 31L32 31L32 30L30 30L30 29L29 29L29 28L32 28L32 26L33 26L33 24L32 24L32 26L31 26L31 25L30 25L30 24L31 24L31 23L32 23L32 22L33 22L33 21L32 21L32 20L31 20L31 19L32 19L32 18L33 18L33 17L32 17L32 16L31 16L31 15L32 15L32 14L33 14L33 13L31 13L31 15L30 15L30 16L31 16L31 19L30 19L30 17L29 17L29 16L28 16L28 15L29 15L29 14L27 14L27 13L30 13L30 12L31 12L31 11L32 11L32 10L33 10L33 9L32 9L32 8L31 8L31 9L30 9L30 8L29 8L29 9L30 9L30 10L29 10L29 11L30 11L30 12L27 12L27 11L25 11L25 10L27 10L27 9L28 9L28 8L27 8L27 9L26 9L26 8L24 8L24 7L25 7L25 4L22 4L22 5L21 5L21 3L22 3L22 2L23 2L23 1L25 1L25 0L19 0L19 1L20 1L20 2L18 2L18 3L17 3L17 4L16 4L16 2L17 2L17 0L16 0L16 1L15 1L15 3L13 3L13 2L14 2L14 1L13 1L13 0ZM8 1L8 2L9 2L9 1ZM21 1L21 2L20 2L20 3L18 3L18 4L20 4L20 3L21 3L21 2L22 2L22 1ZM24 2L24 3L25 3L25 2ZM14 4L14 5L13 5L13 7L12 7L12 6L11 6L11 7L12 7L12 9L11 9L11 8L10 8L10 9L9 9L9 12L11 12L11 13L10 13L10 14L9 14L9 15L11 15L11 14L13 14L13 13L12 13L12 11L13 11L13 12L14 12L14 14L16 14L16 13L15 13L15 12L16 12L16 11L15 11L15 12L14 12L14 10L15 10L15 9L13 9L13 8L15 8L15 7L16 7L16 6L17 6L17 8L19 8L19 9L21 9L21 10L18 10L18 11L17 11L17 12L18 12L18 13L17 13L17 16L16 16L16 15L15 15L15 16L14 16L14 15L12 15L12 17L11 17L11 16L9 16L9 17L11 17L11 20L10 20L10 21L9 21L9 20L8 20L8 16L7 16L7 15L8 15L8 14L7 14L7 13L8 13L8 12L7 12L7 11L6 11L6 12L7 12L7 13L5 13L5 12L4 12L4 13L2 13L2 14L1 14L1 16L3 16L3 15L4 15L4 19L3 19L3 21L4 21L4 23L5 23L5 22L7 22L7 23L6 23L6 24L7 24L7 23L8 23L8 25L9 25L9 23L8 23L8 22L14 22L14 23L12 23L12 25L14 25L14 26L16 26L16 25L15 25L15 24L18 24L18 25L21 25L21 26L22 26L22 28L20 28L20 26L17 26L17 28L18 28L18 29L19 29L19 28L20 28L20 29L21 29L21 31L20 31L20 30L19 30L19 31L20 31L20 32L21 32L21 31L22 31L22 30L23 30L23 29L24 29L24 27L23 27L23 26L24 26L24 25L23 25L23 23L24 23L24 24L26 24L26 23L25 23L25 22L26 22L26 21L27 21L27 22L29 22L29 21L30 21L30 23L31 23L31 20L30 20L30 19L29 19L29 17L28 17L28 16L27 16L27 14L26 14L26 15L25 15L25 14L22 14L22 15L23 15L23 16L21 16L21 18L19 18L19 17L20 17L20 15L21 15L21 14L19 14L19 13L20 13L20 12L21 12L21 13L25 13L25 12L23 12L23 11L24 11L24 10L23 10L23 7L24 7L24 5L22 5L22 6L21 6L21 7L22 7L22 8L20 8L20 5L18 5L18 6L17 6L17 5L16 5L16 4ZM14 5L14 7L15 7L15 6L16 6L16 5ZM9 6L9 7L10 7L10 6ZM18 6L18 7L19 7L19 6ZM22 6L22 7L23 7L23 6ZM10 9L10 11L11 11L11 9ZM12 9L12 10L13 10L13 9ZM22 10L22 11L21 11L21 12L22 12L22 11L23 11L23 10ZM30 10L30 11L31 11L31 10ZM19 11L19 12L20 12L20 11ZM26 12L26 13L27 13L27 12ZM4 13L4 15L5 15L5 16L6 16L6 17L5 17L5 19L7 19L7 18L6 18L6 17L7 17L7 16L6 16L6 15L7 15L7 14L6 14L6 15L5 15L5 13ZM18 14L18 16L17 16L17 17L16 17L16 18L15 18L15 17L14 17L14 16L13 16L13 17L12 17L12 18L13 18L13 17L14 17L14 18L15 18L15 19L14 19L14 20L13 20L13 19L12 19L12 21L14 21L14 22L15 22L15 23L14 23L14 24L15 24L15 23L18 23L18 24L19 24L19 22L20 22L20 23L21 23L21 24L22 24L22 23L23 23L23 22L25 22L25 21L21 21L21 20L22 20L22 19L23 19L23 18L25 18L25 19L24 19L24 20L27 20L27 19L28 19L28 18L27 18L27 17L26 17L26 16L25 16L25 15L24 15L24 16L23 16L23 18L22 18L22 19L21 19L21 20L20 20L20 19L19 19L19 20L20 20L20 21L18 21L18 20L17 20L17 21L16 21L16 22L15 22L15 21L14 21L14 20L16 20L16 18L17 18L17 17L18 17L18 16L19 16L19 14ZM24 16L24 17L25 17L25 18L26 18L26 17L25 17L25 16ZM9 18L9 19L10 19L10 18ZM4 20L4 21L5 21L5 20ZM6 20L6 21L7 21L7 20ZM28 20L28 21L29 21L29 20ZM17 21L17 22L18 22L18 21ZM21 22L21 23L22 23L22 22ZM10 23L10 25L11 25L11 23ZM28 23L28 24L29 24L29 23ZM22 25L22 26L23 26L23 25ZM25 25L25 28L28 28L28 25ZM29 25L29 26L30 26L30 27L31 27L31 26L30 26L30 25ZM26 26L26 27L27 27L27 26ZM18 27L18 28L19 28L19 27ZM9 30L9 31L10 31L10 30ZM17 32L17 33L18 33L18 32ZM0 0L0 7L7 7L7 0ZM1 1L1 6L6 6L6 1ZM2 2L2 5L5 5L5 2ZM26 0L26 7L33 7L33 0ZM27 1L27 6L32 6L32 1ZM28 2L28 5L31 5L31 2ZM0 26L0 33L7 33L7 26ZM1 27L1 32L6 32L6 27ZM2 28L2 31L5 31L5 28Z" fill="#000000"/></g></g></svg>
