<?xml version="1.0" encoding="UTF-8"?>
<svg xmlns="http://www.w3.org/2000/svg" version="1.1" width="300" height="300" viewBox="0 0 300 300"><rect x="0" y="0" width="300" height="300" fill="#ffffff"/><g transform="scale(10.345)"><g transform="translate(0,0)"><path fill-rule="evenodd" d="M9 0L9 1L8 1L8 3L9 3L9 4L8 4L8 8L6 8L6 9L4 9L4 8L3 8L3 9L2 9L2 8L0 8L0 10L2 10L2 11L1 11L1 12L2 12L2 13L1 13L1 14L3 14L3 16L4 16L4 17L5 17L5 16L4 16L4 14L5 14L5 13L9 13L9 14L8 14L8 15L10 15L10 14L12 14L12 16L11 16L11 17L12 17L12 16L13 16L13 17L15 17L15 16L16 16L16 17L17 17L17 16L19 16L19 15L17 15L17 16L16 16L16 15L13 15L13 12L12 12L12 13L9 13L9 12L8 12L8 11L11 11L11 10L12 10L12 9L11 9L11 8L10 8L10 7L11 7L11 6L12 6L12 8L13 8L13 6L14 6L14 8L15 8L15 9L14 9L14 10L16 10L16 9L17 9L17 8L18 8L18 7L19 7L19 9L20 9L20 10L19 10L19 11L18 11L18 10L17 10L17 11L18 11L18 12L17 12L17 13L16 13L16 14L21 14L21 13L24 13L24 12L22 12L22 10L23 10L23 9L25 9L25 11L26 11L26 12L25 12L25 13L26 13L26 12L27 12L27 13L29 13L29 12L28 12L28 10L29 10L29 9L28 9L28 8L26 8L26 9L25 9L25 8L22 8L22 10L21 10L21 9L20 9L20 8L21 8L21 6L20 6L20 5L21 5L21 4L20 4L20 5L19 5L19 3L21 3L21 1L20 1L20 0L19 0L19 1L20 1L20 2L19 2L19 3L18 3L18 2L16 2L16 1L17 1L17 0L16 0L16 1L14 1L14 0L12 0L12 1L11 1L11 2L9 2L9 1L10 1L10 0ZM14 2L14 3L16 3L16 4L15 4L15 8L17 8L17 7L18 7L18 6L19 6L19 7L20 7L20 6L19 6L19 5L16 5L16 4L18 4L18 3L16 3L16 2ZM12 3L12 4L9 4L9 5L10 5L10 6L9 6L9 7L10 7L10 6L11 6L11 5L12 5L12 6L13 6L13 3ZM16 6L16 7L17 7L17 6ZM8 8L8 9L6 9L6 10L8 10L8 9L9 9L9 10L10 10L10 8ZM26 9L26 10L28 10L28 9ZM4 10L4 11L3 11L3 14L4 14L4 11L5 11L5 12L7 12L7 11L5 11L5 10ZM20 10L20 11L19 11L19 12L18 12L18 13L20 13L20 11L21 11L21 10ZM14 11L14 12L15 12L15 11ZM6 14L6 15L7 15L7 14ZM22 14L22 15L20 15L20 18L21 18L21 19L19 19L19 22L18 22L18 21L17 21L17 20L18 20L18 19L17 19L17 20L14 20L14 18L13 18L13 20L12 20L12 19L11 19L11 18L10 18L10 17L9 17L9 16L8 16L8 17L7 17L7 16L6 16L6 17L7 17L7 18L6 18L6 19L7 19L7 18L8 18L8 20L5 20L5 19L3 19L3 20L2 20L2 21L3 21L3 20L4 20L4 21L8 21L8 23L9 23L9 24L10 24L10 25L8 25L8 26L10 26L10 27L8 27L8 29L9 29L9 28L12 28L12 29L14 29L14 28L12 28L12 24L14 24L14 25L13 25L13 27L15 27L15 29L16 29L16 28L17 28L17 29L18 29L18 27L20 27L20 29L23 29L23 28L22 28L22 26L24 26L24 29L25 29L25 27L27 27L27 29L28 29L28 27L29 27L29 26L28 26L28 25L29 25L29 23L28 23L28 22L29 22L29 21L27 21L27 20L29 20L29 17L28 17L28 15L29 15L29 14L24 14L24 15L23 15L23 14ZM0 15L0 17L1 17L1 16L2 16L2 15ZM24 15L24 16L22 16L22 17L24 17L24 18L25 18L25 23L27 23L27 22L26 22L26 20L27 20L27 18L28 18L28 17L27 17L27 15L26 15L26 16L25 16L25 15ZM18 17L18 18L19 18L19 17ZM25 17L25 18L26 18L26 17ZM0 18L0 19L1 19L1 18ZM10 19L10 20L8 20L8 21L11 21L11 19ZM21 19L21 20L22 20L22 19ZM23 19L23 20L24 20L24 19ZM0 20L0 21L1 21L1 20ZM13 20L13 21L14 21L14 22L15 22L15 23L14 23L14 24L15 24L15 27L16 27L16 26L17 26L17 27L18 27L18 26L20 26L20 27L21 27L21 26L22 26L22 25L20 25L20 22L19 22L19 24L18 24L18 22L17 22L17 21L14 21L14 20ZM21 21L21 24L24 24L24 21ZM10 22L10 23L11 23L11 22ZM16 22L16 23L15 23L15 24L16 24L16 25L17 25L17 26L18 26L18 24L17 24L17 22ZM22 22L22 23L23 23L23 22ZM25 24L25 25L28 25L28 24ZM10 25L10 26L11 26L11 25ZM27 26L27 27L28 27L28 26ZM0 0L0 7L7 7L7 0ZM1 1L1 6L6 6L6 1ZM2 2L2 5L5 5L5 2ZM22 0L22 7L29 7L29 0ZM23 1L23 6L28 6L28 1ZM24 2L24 5L27 5L27 2ZM0 22L0 29L7 29L7 22ZM1 23L1 28L6 28L6 23ZM2 24L2 27L5 27L5 24Z" fill="#000000"/></g></g></svg>
